Fruktur.ufo
<glyph name="numbersign" format="1">
  <advance width="1444"/>
  <unicode hex="0023"/>
  <outline>
    <contour>
      <point x="885" y="859" type="line" name="hr01"/>
      <point x="663" y="859" type="line"/>
      <point x="711" y="1089" type="line"/>
      <point x="618" y="1146"/>
      <point x="515" y="1181"/>
      <point x="383" y="1162" type="curve"/>
      <point x="337" y="859" type="line" name="hr02"/>
      <point x="91" y="859" type="line"/>
      <point x="54" y="761"/>
      <point x="51" y="723"/>
      <point x="76" y="626" type="curve"/>
      <point x="305" y="614" type="line"/>
      <point x="264" y="309" type="line"/>
      <point x="53" y="309" type="line"/>
      <point x="18" y="245"/>
      <point x="14" y="189"/>
      <point x="23" y="101" type="curve"/>
      <point x="231" y="82" type="line"/>
      <point x="188" y="-182" type="line"/>
      <point x="276" y="-227"/>
      <point x="370" y="-251"/>
      <point x="474" y="-256" type="curve"/>
      <point x="531" y="72" type="line"/>
      <point x="746" y="64" type="line"/>
      <point x="696" y="-182" type="line"/>
      <point x="788" y="-231"/>
      <point x="871" y="-257"/>
      <point x="973" y="-255" type="curve"/>
      <point x="1038" y="58" type="line" name="hr03"/>
      <point x="1304" y="45" type="line"/>
      <point x="1340" y="123"/>
      <point x="1359" y="225"/>
      <point x="1330" y="309" type="curve"/>
      <point x="1100" y="309" type="line"/>
      <point x="1156" y="621" type="line"/>
      <point x="1380" y="621" type="line"/>
      <point x="1418" y="704"/>
      <point x="1420" y="780"/>
      <point x="1402" y="859" type="curve"/>
      <point x="1203" y="859" type="line"/>
      <point x="1252" y="1089" type="line"/>
      <point x="1155" y="1162"/>
      <point x="1057" y="1182"/>
      <point x="932" y="1161" type="curve"/>
    </contour>
    <contour>
      <point x="636" y="611" type="line" name="hr04"/>
      <point x="844" y="611" type="line"/>
      <point x="794" y="309" type="line"/>
      <point x="580" y="309" type="line"/>
    </contour>
  </outline>
</glyph>
<glyph name="dollar" format="1">
  <advance width="980"/>
  <unicode hex="0024"/>
  <outline>
    <contour>
      <point x="665" y="1264" type="line" name="hr00"/>
      <point x="752" y="1688" type="line"/>
      <point x="726" y="1713"/>
      <point x="681" y="1724"/>
      <point x="627" y="1724" type="curve" smooth="yes"/>
      <point x="532" y="1724"/>
      <point x="454" y="1687"/>
      <point x="410" y="1617" type="curve"/>
      <point x="451" y="1309" type="line"/>
    </contour>
    <contour>
      <point x="350" y="124" type="line"/>
      <point x="288" y="-144" type="line"/>
      <point x="358" y="-225"/>
      <point x="508" y="-251"/>
      <point x="610" y="-180" type="curve"/>
      <point x="600" y="-64"/>
      <point x="584" y="76"/>
      <point x="548" y="178" type="curve"/>
    </contour>
    <contour>
      <point x="464" y="1112" type="line"/>
      <point x="532" y="1019"/>
      <point x="678" y="916"/>
      <point x="760" y="882" type="curve"/>
      <point x="869" y="975"/>
      <point x="934" y="1187"/>
      <point x="899" y="1308" type="curve"/>
      <point x="738" y="1362" type="line"/>
      <point x="679" y="1386"/>
      <point x="574" y="1394"/>
      <point x="515" y="1394" type="curve" smooth="yes"/>
      <point x="439" y="1394"/>
      <point x="316" y="1337"/>
      <point x="254" y="1300" type="curve" smooth="yes"/>
      <point x="209" y="1273"/>
      <point x="76" y="1174"/>
      <point x="76" y="1115" type="curve" smooth="yes"/>
      <point x="76" y="1073"/>
      <point x="77" y="811"/>
      <point x="98" y="732" type="curve"/>
      <point x="152" y="662"/>
      <point x="325" y="583"/>
      <point x="454" y="535" type="curve" smooth="yes"/>
      <point x="498" y="519"/>
      <point x="537" y="506"/>
      <point x="564" y="498" type="curve"/>
      <point x="567" y="461"/>
      <point x="565" y="377"/>
      <point x="558" y="339" type="curve"/>
      <point x="509" y="315" type="line"/>
      <point x="400" y="395"/>
      <point x="273" y="450"/>
      <point x="132" y="454" type="curve"/>
      <point x="116" y="420"/>
      <point x="30" y="317"/>
      <point x="130" y="135" type="curve"/>
      <point x="212" y="122"/>
      <point x="392" y="97"/>
      <point x="572" y="90" type="curve"/>
      <point x="679" y="134"/>
      <point x="764" y="202"/>
      <point x="842" y="278" type="curve"/>
      <point x="866" y="348"/>
      <point x="879" y="482"/>
      <point x="874" y="565" type="curve"/>
      <point x="797" y="662"/>
      <point x="521" y="839"/>
      <point x="429" y="888" type="curve"/>
      <point x="438" y="1103" type="line"/>
    </contour>
  </outline>
</glyph>
<glyph name="parenright" format="1">
  <advance width="694"/>
  <unicode hex="0029"/>
  <outline>
    <contour>
      <point x="214" y="-291" type="line" name="hr01"/>
      <point x="358" y="-165"/>
      <point x="575" y="401"/>
      <point x="576" y="761" type="curve" name="hr02"/>
      <point x="554" y="1065"/>
      <point x="487" y="1417"/>
      <point x="281" y="1852" type="curve"/>
      <point x="175" y="1834"/>
      <point x="79" y="1800"/>
      <point x="1" y="1740" type="curve"/>
      <point x="122" y="1423"/>
      <point x="246" y="1066"/>
      <point x="265" y="706" type="curve"/>
      <point x="261" y="584"/>
      <point x="197" y="200"/>
      <point x="58" y="-241" type="curve"/>
    </contour>
  </outline>
</glyph>
<glyph name="plus" format="1">
  <advance width="1069"/>
  <unicode hex="002B"/>
  <outline>
    <contour>
      <point x="646" y="601" type="line" name="hr00"/>
      <point x="699" y="1105" type="line"/>
      <point x="673" y="1130"/>
      <point x="628" y="1141"/>
      <point x="574" y="1141" type="curve" smooth="yes"/>
      <point x="479" y="1141"/>
      <point x="401" y="1104"/>
      <point x="357" y="1034" type="curve"/>
      <point x="428" y="646" type="line"/>
    </contour>
    <contour>
      <point x="424" y="534" type="line"/>
      <point x="402" y="68" type="line"/>
      <point x="500" y="30"/>
      <point x="587" y="33"/>
      <point x="657" y="114" type="curve"/>
      <point x="657" y="474" type="line"/>
    </contour>
    <contour>
      <point x="907" y="461" type="line"/>
      <point x="961" y="567"/>
      <point x="998" y="658"/>
      <point x="975" y="754" type="curve"/>
      <point x="147" y="689" type="line"/>
      <point x="101" y="611"/>
      <point x="79" y="573"/>
      <point x="91" y="460" type="curve"/>
    </contour>
  </outline>
</glyph>
<glyph name="comma" format="1">
  <advance width="651"/>
  <unicode hex="002C"/>
  <outline>
    <contour>
      <point x="188" y="451" type="line" name="hr00"/>
      <point x="465" y="448"/>
      <point x="536" y="257"/>
      <point x="549" y="204" type="curve"/>
      <point x="478" y="38"/>
      <point x="185" y="-203"/>
      <point x="110" y="-244" type="curve"/>
      <point x="-11" y="-176" type="line"/>
    </contour>
  </outline>
</glyph>
<glyph name="hyphen" format="1">
  <advance width="967"/>
  <unicode hex="002D"/>
  <outline>
    <contour>
      <point x="111" y="437" type="curve" name="hr00"/>
      <point x="488" y="423"/>
      <point x="709" y="416"/>
      <point x="793" y="423" type="curve"/>
      <point x="847" y="529"/>
      <point x="884" y="642"/>
      <point x="861" y="738" type="curve"/>
      <point x="167" y="689" type="line"/>
      <point x="121" y="611"/>
      <point x="99" y="550"/>
    </contour>
  </outline>
</glyph>
<glyph name="period" format="1">
  <advance width="590"/>
  <unicode hex="002E"/>
  <outline>
    <contour>
      <point x="546" y="251" type="curve" name="hr00"/>
      <point x="515" y="119"/>
      <point x="342" y="-4"/>
      <point x="252" y="-34" type="curve"/>
      <point x="148" y="11"/>
      <point x="54" y="83"/>
      <point x="15" y="195" type="curve"/>
      <point x="31" y="244"/>
      <point x="193" y="441"/>
      <point x="244" y="475" type="curve"/>
      <point x="372" y="439"/>
      <point x="478" y="346"/>
    </contour>
  </outline>
</glyph>
<glyph name="zero" format="1">
  <advance width="1158"/>
  <unicode hex="0030"/>
  <outline>
    <contour>
      <point x="71" y="581" type="curve" smooth="yes" name="hr00"/>
      <point x="66" y="249"/>
      <point x="189" y="-20"/>
      <point x="567" y="-20" type="curve" smooth="yes"/>
      <point x="935" y="-20"/>
      <point x="1082" y="253"/>
      <point x="1087" y="581" type="curve" smooth="yes"/>
      <point x="1093" y="915"/>
      <point x="990" y="1185"/>
      <point x="588" y="1185" type="curve" smooth="yes"/>
      <point x="210" y="1185"/>
      <point x="77" y="915"/>
    </contour>
    <contour>
      <point x="522" y="883" type="line"/>
      <point x="685" y="826" type="line"/>
      <point x="708" y="731"/>
      <point x="718" y="610"/>
      <point x="718" y="513" type="curve" smooth="yes"/>
      <point x="718" y="433"/>
      <point x="710" y="354"/>
      <point x="694" y="265" type="curve"/>
      <point x="632" y="222" type="line"/>
      <point x="559" y="238"/>
      <point x="500" y="260"/>
      <point x="455" y="290" type="curve"/>
      <point x="435" y="391"/>
      <point x="425" y="495"/>
      <point x="425" y="588" type="curve" smooth="yes"/>
      <point x="425" y="677"/>
      <point x="434" y="762"/>
      <point x="453" y="850" type="curve"/>
    </contour>
  </outline>
</glyph>
<glyph name="five" format="1">
  <advance width="1049"/>
  <unicode hex="0035"/>
  <outline>
    <contour>
      <point x="638" y="654" type="curve" name="hr01"/>
      <point x="505" y="618"/>
      <point x="360" y="445"/>
      <point x="316" y="400" type="curve" name="hr02"/>
      <point x="313" y="388"/>
      <point x="309" y="384"/>
      <point x="304" y="384" type="curve" smooth="yes"/>
      <point x="295" y="384"/>
      <point x="286" y="400"/>
      <point x="282" y="400" type="curve" smooth="yes"/>
      <point x="281" y="400"/>
      <point x="280" y="399"/>
      <point x="280" y="396" type="curve" smooth="yes"/>
      <point x="282" y="371"/>
      <point x="309" y="338"/>
      <point x="343" y="338" type="curve"/>
      <point x="599" y="346" type="line"/>
      <point x="621" y="326"/>
      <point x="637" y="241"/>
      <point x="637" y="160" type="curve" smooth="yes"/>
      <point x="637" y="75"/>
      <point x="616" y="-5"/>
      <point x="595" y="-17" type="curve"/>
      <point x="569" y="-21"/>
      <point x="537" y="-23"/>
      <point x="512" y="-23" type="curve" smooth="yes"/>
      <point x="369" y="-23"/>
      <point x="239" y="44"/>
      <point x="110" y="107" type="curve"/>
      <point x="71" y="72"/>
      <point x="49" y="37"/>
      <point x="49" y="-17" type="curve" smooth="yes"/>
      <point x="49" y="-34"/>
      <point x="50" y="-56"/>
      <point x="57" y="-79" type="curve"/>
      <point x="144" y="-199"/>
      <point x="292" y="-291"/>
      <point x="497" y="-291" type="curve" smooth="yes"/>
      <point x="836" y="-291"/>
      <point x="995" y="-64"/>
      <point x="995" y="237" type="curve" smooth="yes"/>
      <point x="995" y="462"/>
      <point x="871" y="658"/>
    </contour>
    <contour>
      <point x="335" y="487" type="line"/>
      <point x="92" y="501" type="line"/>
      <point x="68" y="468"/>
      <point x="59" y="429"/>
      <point x="61" y="390" type="curve"/>
      <point x="64" y="288"/>
      <point x="150" y="164"/>
      <point x="220" y="143" type="curve"/>
      <point x="300" y="159"/>
      <point x="410" y="288"/>
      <point x="439" y="361" type="curve"/>
    </contour>
    <contour>
      <point x="479" y="435" type="line"/>
      <point x="400" y="500" type="line"/>
      <point x="429" y="865" type="line"/>
      <point x="543" y="805"/>
      <point x="780" y="755"/>
      <point x="853" y="751" type="curve"/>
      <point x="888" y="769"/>
      <point x="964" y="889"/>
      <point x="964" y="1026" type="curve" smooth="yes"/>
      <point x="964" y="1083"/>
      <point x="952" y="1144"/>
      <point x="917" y="1205" type="curve"/>
      <point x="542" y="1135" type="line"/>
      <point x="481" y="1145"/>
      <point x="283" y="1194"/>
      <point x="228" y="1205" type="curve"/>
      <point x="148" y="1166"/>
      <point x="86" y="1048"/>
      <point x="83" y="962" type="curve"/>
      <point x="265" y="389" type="line"/>
    </contour>
  </outline>
</glyph>
<glyph name="seven" format="1">
  <advance width="1050"/>
  <unicode hex="0037"/>
  <outline>
    <contour>
      <point x="1007" y="770" type="line" name="hr00"/>
      <point x="1081" y="928"/>
      <point x="1047" y="1129"/>
      <point x="913" y="1203" type="curve"/>
      <point x="830" y="1177"/>
      <point x="762" y="1135"/>
      <point x="689" y="1077" type="curve"/>
      <point x="585" y="1124"/>
      <point x="489" y="1174"/>
      <point x="340" y="1203" type="curve"/>
      <point x="298" y="1205"/>
      <point x="72" y="1109"/>
      <point x="49" y="995" type="curve"/>
      <point x="18" y="830"/>
      <point x="96" y="592"/>
      <point x="170" y="511" type="curve"/>
      <point x="345" y="531" type="line"/>
      <point x="372" y="858" type="line"/>
      <point x="611" y="823" type="line"/>
      <point x="458" y="365" type="line"/>
      <point x="171" y="-162" type="line"/>
      <point x="203" y="-242"/>
      <point x="328" y="-286"/>
      <point x="442" y="-290" type="curve" smooth="yes"/>
      <point x="490" y="-292"/>
      <point x="516" y="-287"/>
      <point x="552" y="-275" type="curve"/>
      <point x="715" y="284" type="line"/>
      <point x="885" y="790" type="line"/>
    </contour>
  </outline>
</glyph>
<glyph name="less" format="1">
  <advance width="881"/>
  <unicode hex="003C"/>
  <outline>
    <contour>
      <point x="837" y="877" type="line" name="hr00"/>
      <point x="820" y="944"/>
      <point x="726" y="1084"/>
      <point x="671" y="1107" type="curve"/>
      <point x="80" y="682" type="line"/>
      <point x="65" y="596"/>
      <point x="95" y="390"/>
      <point x="136" y="343" type="curve"/>
      <point x="716" y="10" type="line"/>
      <point x="770" y="42"/>
      <point x="841" y="137"/>
      <point x="858" y="211" type="curve"/>
      <point x="432" y="520" type="line"/>
    </contour>
  </outline>
</glyph>
<glyph name="question" format="1">
  <advance width="955"/>
  <unicode hex="003F"/>
  <outline>
    <contour>
      <point x="290" y="605" type="line" name="hr00"/>
      <point x="245" y="801"/>
      <point x="141" y="881"/>
      <point x="317" y="988" type="curve" smooth="yes"/>
      <point x="620" y="1170" type="line"/>
      <point x="497" y="1238"/>
      <point x="292" y="1267"/>
      <point x="110" y="1306" type="curve"/>
      <point x="128" y="1429"/>
      <point x="219" y="1576"/>
      <point x="299" y="1611" type="curve"/>
      <point x="397" y="1611"/>
      <point x="704" y="1569"/>
      <point x="837" y="1377" type="curve"/>
      <point x="872" y="1259"/>
      <point x="878" y="1034"/>
      <point x="832" y="874" type="curve"/>
      <point x="832" y="874"/>
      <point x="683" y="804"/>
      <point x="525" y="813" type="curve"/>
      <point x="477" y="595" type="line"/>
    </contour>
    <contour>
      <point x="691" y="251" type="curve"/>
      <point x="660" y="119"/>
      <point x="487" y="-4"/>
      <point x="397" y="-34" type="curve"/>
      <point x="293" y="11"/>
      <point x="199" y="83"/>
      <point x="160" y="195" type="curve"/>
      <point x="176" y="244"/>
      <point x="338" y="441"/>
      <point x="389" y="475" type="curve"/>
      <point x="517" y="439"/>
      <point x="623" y="346"/>
    </contour>
  </outline>
</glyph>
<glyph name="at" format="1">
  <advance width="1704"/>
  <unicode hex="0040"/>
  <outline>
    <contour>
      <point x="1551" y="233" type="curve" name="hr00"/>
      <point x="1335" y="77"/>
      <point x="1192" y="56"/>
      <point x="1123" y="55" type="curve" smooth="yes"/>
      <point x="1072" y="54"/>
      <point x="1009" y="88"/>
      <point x="964" y="136" type="curve" smooth="yes"/>
      <point x="944" y="158"/>
      <point x="916" y="178"/>
      <point x="924" y="250" type="curve" smooth="yes"/>
      <point x="932" y="332"/>
      <point x="941" y="401"/>
      <point x="953" y="474" type="curve"/>
      <point x="932" y="479" type="line"/>
      <point x="888" y="365"/>
      <point x="805" y="141"/>
      <point x="728" y="76" type="curve" smooth="yes"/>
      <point x="712" y="62"/>
      <point x="698" y="57"/>
      <point x="683" y="56" type="curve" smooth="yes"/>
      <point x="654" y="54"/>
      <point x="625" y="73"/>
      <point x="593" y="96" type="curve" smooth="yes"/>
      <point x="553" y="124"/>
      <point x="486" y="148"/>
      <point x="485" y="190" type="curve" smooth="yes"/>
      <point x="485" y="213"/>
      <point x="489" y="287"/>
      <point x="488" y="330" type="curve" smooth="yes"/>
      <point x="485" y="458"/>
      <point x="466" y="669"/>
      <point x="427" y="797" type="curve" smooth="yes"/>
      <point x="420" y="818"/>
      <point x="417" y="830"/>
      <point x="417" y="841" type="curve" smooth="yes"/>
      <point x="417" y="854"/>
      <point x="422" y="865"/>
      <point x="437" y="886" type="curve" smooth="yes"/>
      <point x="533" y="1015"/>
      <point x="699" y="1042"/>
      <point x="730" y="1047" type="curve"/>
      <point x="817" y="987"/>
      <point x="880" y="890"/>
      <point x="929" y="807" type="curve"/>
      <point x="928" y="903"/>
      <point x="923" y="980"/>
      <point x="923" y="1006" type="curve"/>
      <point x="940" y="1017"/>
      <point x="997" y="1029"/>
      <point x="1059" y="1029" type="curve" smooth="yes"/>
      <point x="1158" y="1029"/>
      <point x="1226" y="999"/>
      <point x="1284" y="931" type="curve"/>
      <point x="1290" y="879"/>
      <point x="1224" y="510"/>
      <point x="1144" y="321" type="curve"/>
      <point x="1412" y="317" type="line"/>
      <point x="1487" y="428"/>
      <point x="1536" y="517"/>
      <point x="1574" y="678" type="curve"/>
      <point x="1586" y="1103"/>
      <point x="1239" y="1382"/>
      <point x="893" y="1382" type="curve" smooth="yes"/>
      <point x="647" y="1382"/>
      <point x="373" y="1298"/>
      <point x="255" y="1175" type="curve"/>
      <point x="192" y="1062"/>
      <point x="132" y="770"/>
      <point x="129" y="562" type="curve" smooth="yes"/>
      <point x="126" y="354"/>
      <point x="213" y="61"/>
      <point x="330" y="-76" type="curve"/>
      <point x="663" y="-310"/>
      <point x="1392" y="-257"/>
      <point x="1628" y="-105" type="curve"/>
      <point x="1652" y="-5"/>
      <point x="1600" y="139"/>
    </contour>
    <contour>
      <point x="748" y="328" type="line"/>
      <point x="815" y="394"/>
      <point x="915" y="586"/>
      <point x="944" y="650" type="curve"/>
      <point x="945" y="711" type="line"/>
      <point x="742" y="754" type="line"/>
      <point x="743" y="649" type="line"/>
      <point x="745" y="551"/>
      <point x="733" y="453"/>
      <point x="712" y="348" type="curve"/>
    </contour>
  </outline>
</glyph>
<glyph name="D" format="1">
  <advance width="1334"/>
  <unicode hex="0044"/>
  <outline>
    <contour>
      <point x="85" y="299" type="line" name="hr01"/>
      <point x="94" y="186"/>
      <point x="204" y="20"/>
      <point x="288" y="-20" type="curve"/>
      <point x="404" y="-13"/>
      <point x="482" y="111"/>
      <point x="534" y="200" type="curve"/>
      <point x="754" y="55" type="line"/>
      <point x="956" y="55"/>
      <point x="1078" y="181"/>
      <point x="1078" y="369" type="curve" smooth="yes"/>
      <point x="1078" y="476"/>
      <point x="1063" y="579"/>
      <point x="1046" y="625" type="curve"/>
      <point x="928" y="639" type="line"/>
      <point x="890" y="299" type="line"/>
      <point x="577" y="394" type="line"/>
      <point x="318" y="437" type="line"/>
      <point x="271" y="437" type="line" smooth="yes"/>
      <point x="237" y="437"/>
      <point x="201" y="433"/>
      <point x="174" y="423" type="curve"/>
    </contour>
    <contour>
      <point x="557" y="332" type="line"/>
      <point x="609" y="1449" type="line"/>
      <point x="561" y="1478"/>
      <point x="571" y="1489"/>
      <point x="508" y="1489" type="curve" smooth="yes"/>
      <point x="359" y="1489"/>
      <point x="227" y="1456"/>
      <point x="190" y="1399" type="curve"/>
      <point x="226" y="1189"/>
      <point x="224" y="871"/>
      <point x="315" y="373" type="curve"/>
    </contour>
    <contour>
      <point x="755" y="-21" type="curve" name="hr02"/>
      <point x="884" y="-7"/>
      <point x="1144" y="115"/>
      <point x="1166" y="190" type="curve" smooth="yes"/>
      <point x="1205" y="324"/>
      <point x="1254" y="841"/>
      <point x="1254" y="996" type="curve" smooth="yes"/>
      <point x="1254" y="1133"/>
      <point x="1249" y="1165"/>
      <point x="1242" y="1226" type="curve"/>
      <point x="1146" y="1334"/>
      <point x="991" y="1435"/>
      <point x="877" y="1489" type="curve"/>
      <point x="165" y="1549" type="line"/>
      <point x="62" y="1478"/>
      <point x="39" y="1346"/>
      <point x="30" y="1226" type="curve"/>
      <point x="288" y="1204" type="line"/>
      <point x="587" y="1182" type="line"/>
      <point x="838" y="1129" type="line"/>
      <point x="850" y="1002"/>
      <point x="855" y="782"/>
      <point x="855" y="586" type="curve" smooth="yes"/>
      <point x="855" y="466"/>
      <point x="849" y="302"/>
      <point x="843" y="228" type="curve"/>
      <point x="534" y="200" type="line"/>
      <point x="564" y="134"/>
      <point x="652" y="35"/>
    </contour>
    <contour>
      <point x="675" y="0" type="move" name="top"/>
    </contour>
  </outline>
</glyph>
<glyph name="E" format="1">
  <advance width="1110"/>
  <unicode hex="0045"/>
  <outline>
    <contour>
      <point x="491" y="1455" type="line" name="hr00"/>
      <point x="158" y="1528" type="line"/>
      <point x="75" y="1470"/>
      <point x="-5" y="1354"/>
      <point x="-5" y="1265" type="curve"/>
      <point x="238" y="681" type="line"/>
      <point x="80" y="264" type="line"/>
      <point x="90" y="193"/>
      <point x="123" y="128"/>
      <point x="173" y="68" type="curve"/>
      <point x="316" y="30"/>
      <point x="615" y="-15"/>
      <point x="793" y="-20" type="curve"/>
      <point x="905" y="8"/>
      <point x="992" y="88"/>
      <point x="1044" y="193" type="curve"/>
      <point x="1044" y="282"/>
      <point x="1027" y="418"/>
      <point x="1006" y="474" type="curve"/>
      <point x="826" y="489" type="line"/>
      <point x="744" y="299" type="line"/>
      <point x="457" y="309" type="line"/>
      <point x="471" y="664" type="line"/>
      <point x="578" y="604"/>
      <point x="716" y="581"/>
      <point x="845" y="581" type="curve" smooth="yes"/>
      <point x="865" y="581"/>
      <point x="885" y="582"/>
      <point x="905" y="584" type="curve"/>
      <point x="928" y="609"/>
      <point x="956" y="692"/>
      <point x="956" y="778" type="curve" smooth="yes"/>
      <point x="956" y="832"/>
      <point x="945" y="886"/>
      <point x="916" y="930" type="curve"/>
      <point x="766" y="899"/>
      <point x="673" y="874"/>
      <point x="463" y="851" type="curve"/>
      <point x="424" y="1171" type="line"/>
      <point x="639" y="1112"/>
      <point x="775" y="1073"/>
      <point x="893" y="1062" type="curve"/>
      <point x="959" y="1112"/>
      <point x="998" y="1225"/>
      <point x="998" y="1331" type="curve" smooth="yes"/>
      <point x="998" y="1423"/>
      <point x="969" y="1511"/>
      <point x="903" y="1549" type="curve"/>
    </contour>
    <contour>
      <point x="523" y="0" type="move" name="top"/>
    </contour>
  </outline>
</glyph>
<glyph name="I" format="1">
  <advance width="666"/>
  <unicode hex="0049"/>
  <outline>
    <contour>
      <point x="230" y="656" type="curve" name="hr00"/>
      <point x="181" y="513"/>
      <point x="143" y="258"/>
      <point x="133" y="62" type="curve"/>
      <point x="186" y="12"/>
      <point x="272" y="-20"/>
      <point x="391" y="-20" type="curve" smooth="yes"/>
      <point x="462" y="-20"/>
      <point x="515" y="-9"/>
      <point x="558" y="19" type="curve"/>
      <point x="547" y="208"/>
      <point x="522" y="420"/>
      <point x="488" y="583" type="curve"/>
      <point x="566" y="1489" type="line"/>
      <point x="518" y="1518"/>
      <point x="463" y="1529"/>
      <point x="400" y="1529" type="curve" smooth="yes"/>
      <point x="251" y="1529"/>
      <point x="119" y="1456"/>
      <point x="82" y="1399" type="curve"/>
      <point x="118" y="1189"/>
      <point x="160" y="868"/>
    </contour>
    <contour>
      <point x="328" y="0" type="move" name="top"/>
    </contour>
  </outline>
</glyph>
<glyph name="P" format="1">
  <advance width="1264"/>
  <unicode hex="0050"/>
  <outline>
    <contour>
      <point x="465" y="344" type="line" name="hr00"/>
      <point x="486" y="594"/>
      <point x="439" y="749"/>
      <point x="510" y="988" type="curve"/>
      <point x="464" y="969" type="line"/>
      <point x="435" y="983" type="line"/>
      <point x="530" y="1480" type="line"/>
      <point x="478" y="1515"/>
      <point x="419" y="1530"/>
      <point x="360" y="1529" type="curve" smooth="yes"/>
      <point x="253" y="1527"/>
      <point x="147" y="1473"/>
      <point x="88" y="1393" type="curve"/>
      <point x="79" y="1354"/>
      <point x="163" y="600"/>
      <point x="219" y="488" type="curve"/>
    </contour>
    <contour>
      <point x="221" y="496" type="line"/>
      <point x="202" y="430"/>
      <point x="192" y="173"/>
      <point x="192" y="143" type="curve" smooth="yes"/>
      <point x="192" y="67"/>
      <point x="277" y="-21"/>
      <point x="406" y="-21" type="curve" smooth="yes"/>
      <point x="565" y="-21"/>
      <point x="712" y="68"/>
      <point x="750" y="145" type="curve"/>
      <point x="722" y="269" type="line"/>
      <point x="516" y="282" type="line"/>
      <point x="468" y="522" type="line"/>
    </contour>
    <contour>
      <point x="427" y="487" type="curve"/>
      <point x="436" y="486" type="line"/>
      <point x="429" y="479" type="line"/>
      <point x="530" y="438"/>
      <point x="776" y="390"/>
      <point x="855" y="391" type="curve"/>
      <point x="935" y="392"/>
      <point x="1073" y="519"/>
      <point x="1116" y="570" type="curve"/>
      <point x="1200" y="802"/>
      <point x="1236" y="1184"/>
      <point x="1219" y="1404" type="curve"/>
      <point x="1099" y="1506"/>
      <point x="937" y="1549"/>
      <point x="861" y="1548" type="curve" smooth="yes"/>
      <point x="803" y="1547"/>
      <point x="752" y="1537"/>
      <point x="731" y="1531" type="curve"/>
      <point x="335" y="699" type="line"/>
      <point x="420" y="663" type="line"/>
      <point x="417" y="642"/>
      <point x="427" y="487"/>
    </contour>
    <contour>
      <point x="795" y="638" type="curve" smooth="yes"/>
      <point x="779" y="545"/>
      <point x="557" y="676"/>
      <point x="504" y="695" type="curve"/>
      <point x="549" y="791"/>
      <point x="707" y="1040"/>
      <point x="780" y="1151" type="curve"/>
      <point x="827" y="1143" type="line"/>
      <point x="844" y="980"/>
      <point x="823" y="796"/>
    </contour>
    <contour>
      <point x="624" y="0" type="move" name="top"/>
    </contour>
  </outline>
</glyph>
<glyph name="T" format="1">
  <advance width="1103"/>
  <unicode hex="0054"/>
  <outline>
    <contour>
      <point x="715" y="1438" type="line" name="hr01"/>
      <point x="276" y="1549" type="line"/>
      <point x="181" y="1540"/>
      <point x="63" y="1480"/>
      <point x="-8" y="1393" type="curve"/>
      <point x="-67" y="1288"/>
      <point x="-15" y="1070"/>
      <point x="19" y="967" type="curve"/>
      <point x="98" y="933"/>
      <point x="173" y="939"/>
      <point x="252" y="966" type="curve"/>
      <point x="293" y="1247" type="line" name="hr02"/>
      <point x="582" y="1174" type="line"/>
      <point x="778" y="1162" type="line"/>
      <point x="844" y="1119"/>
      <point x="986" y="1084"/>
      <point x="1054" y="1084" type="curve"/>
      <point x="1186" y="1174"/>
      <point x="1195" y="1480"/>
      <point x="1063" y="1549" type="curve"/>
    </contour>
    <contour>
      <point x="749" y="580" type="line"/>
      <point x="815" y="1204" type="line" name="hr03"/>
      <point x="715" y="1255"/>
      <point x="613" y="1318"/>
      <point x="402" y="1245" type="curve" name="hr04"/>
      <point x="464" y="579" type="line"/>
    </contour>
    <contour>
      <point x="749" y="598" type="line"/>
      <point x="462" y="580" type="line"/>
      <point x="441" y="455"/>
      <point x="402" y="344"/>
      <point x="412" y="227" type="curve" smooth="yes"/>
      <point x="426" y="72"/>
      <point x="612" y="-21"/>
      <point x="753" y="-21" type="curve" smooth="yes"/>
      <point x="884" y="-21"/>
      <point x="1035" y="189"/>
      <point x="1056" y="283" type="curve"/>
      <point x="978" y="415" type="line"/>
      <point x="758" y="314" type="line"/>
    </contour>
    <contour>
      <point x="634" y="0" type="move" name="top"/>
    </contour>
    <contour>
      <point x="788" y="75" type="move" name="btm"/>
    </contour>
    <contour>
      <point x="637" y="-20" type="move" name="btm"/>
    </contour>
  </outline>
</glyph>
<glyph name="V" format="1">
  <advance width="1211"/>
  <unicode hex="0056"/>
  <outline>
    <contour>
      <point x="403" y="1472" type="curve" name="hr00"/>
      <point x="350" y="1512"/>
      <point x="287" y="1529"/>
      <point x="225" y="1529" type="curve" smooth="yes"/>
      <point x="93" y="1529"/>
      <point x="-35" y="1444"/>
      <point x="-51" y="1287" type="curve"/>
      <point x="124" y="1065" type="line"/>
      <point x="391" y="282" type="line"/>
      <point x="368" y="220"/>
      <point x="347" y="145"/>
      <point x="340" y="46" type="curve"/>
      <point x="393" y="3"/>
      <point x="514" y="-22"/>
      <point x="631" y="-22" type="curve" smooth="yes"/>
      <point x="734" y="-22"/>
      <point x="834" y="-2"/>
      <point x="888" y="41" type="curve"/>
      <point x="871" y="138"/>
      <point x="850" y="205"/>
      <point x="827" y="259" type="curve"/>
      <point x="1196" y="1127" type="line"/>
      <point x="1185" y="1279"/>
      <point x="1115" y="1461"/>
      <point x="1003" y="1551" type="curve"/>
      <point x="859" y="1533"/>
      <point x="683" y="1457"/>
      <point x="623" y="1302" type="curve"/>
      <point x="677" y="1192"/>
      <point x="745" y="1141"/>
      <point x="814" y="1082" type="curve"/>
      <point x="645" y="343" type="line"/>
      <point x="619" y="672"/>
      <point x="432" y="1415"/>
    </contour>
  </outline>
</glyph>
<glyph name="W" format="1">
  <advance width="1839"/>
  <unicode hex="0057"/>
  <outline>
    <contour>
      <point x="1218" y="1280" type="curve" name="hr00"/>
      <point x="1268" y="1170"/>
      <point x="1354" y="1115"/>
      <point x="1421" y="1056" type="curve"/>
      <point x="1322" y="373" type="line"/>
      <point x="1305" y="373" type="line"/>
      <point x="1288" y="659"/>
      <point x="1140" y="1070"/>
      <point x="1129" y="1135" type="curve"/>
      <point x="1129" y="1135"/>
      <point x="1129" y="1136"/>
      <point x="1130" y="1137" type="curve"/>
      <point x="1125" y="1291"/>
      <point x="1066" y="1470"/>
      <point x="981" y="1547" type="curve"/>
      <point x="837" y="1529"/>
      <point x="670" y="1441"/>
      <point x="576" y="1286" type="curve"/>
      <point x="626" y="1176"/>
      <point x="681" y="1119"/>
      <point x="748" y="1060" type="curve"/>
      <point x="589" y="373" type="line"/>
      <point x="582" y="373" type="line"/>
      <point x="565" y="664"/>
      <point x="446" y="1423"/>
      <point x="419" y="1480" type="curve"/>
      <point x="418" y="1480" type="line"/>
      <point x="375" y="1531"/>
      <point x="315" y="1552"/>
      <point x="254" y="1550" type="curve" smooth="yes"/>
      <point x="129" y="1547"/>
      <point x="-20" y="1430"/>
      <point x="-69" y="1327" type="curve"/>
      <point x="104" y="1097" type="line"/>
      <point x="107" y="1086" type="line"/>
      <point x="314" y="291" type="line"/>
      <point x="288" y="236"/>
      <point x="263" y="169"/>
      <point x="253" y="80" type="curve"/>
      <point x="354" y="-18"/>
      <point x="703" y="-26"/>
      <point x="826" y="76" type="curve"/>
      <point x="811" y="164"/>
      <point x="791" y="223"/>
      <point x="768" y="272" type="curve"/>
      <point x="898" y="790" type="line"/>
      <point x="1040" y="298" type="line"/>
      <point x="1013" y="241"/>
      <point x="986" y="173"/>
      <point x="976" y="80" type="curve"/>
      <point x="1077" y="-18"/>
      <point x="1426" y="-26"/>
      <point x="1549" y="76" type="curve"/>
      <point x="1534" y="162"/>
      <point x="1514" y="221"/>
      <point x="1492" y="269" type="curve"/>
      <point x="1795" y="1165" type="line"/>
      <point x="1789" y="1317"/>
      <point x="1730" y="1460"/>
      <point x="1621" y="1550" type="curve"/>
      <point x="1477" y="1532"/>
      <point x="1283" y="1435"/>
    </contour>
    <contour>
      <point x="903" y="0" type="move" name="top"/>
    </contour>
  </outline>
</glyph>
<glyph name="bracketleft" format="1">
  <advance width="710"/>
  <unicode hex="005B"/>
  <outline>
    <contour>
      <point x="484" y="1578" type="line" name="hr00"/>
      <point x="546" y="1549"/>
      <point x="596" y="1538"/>
      <point x="658" y="1544" type="curve"/>
      <point x="681" y="1632"/>
      <point x="687" y="1715"/>
      <point x="683" y="1803" type="curve"/>
      <point x="300" y="1849" type="line"/>
      <point x="149" y="1724" type="line"/>
      <point x="207" y="-245" type="line"/>
      <point x="601" y="-291" type="line"/>
      <point x="639" y="-95" type="line"/>
      <point x="462" y="-28" type="line"/>
    </contour>
  </outline>
</glyph>
<glyph name="grave" format="1">
  <advance width="692"/>
  <unicode hex="0060"/>
  <outline>
    <contour>
      <point x="290" y="1732" type="curve" name="hr00"/>
      <point x="401" y="1602"/>
      <point x="473" y="1508"/>
      <point x="598" y="1402" type="curve"/>
      <point x="574" y="1336"/>
      <point x="531" y="1274"/>
      <point x="499" y="1247" type="curve"/>
      <point x="364" y="1274"/>
      <point x="163" y="1369"/>
      <point x="75" y="1446" type="curve"/>
      <point x="76" y="1559"/>
      <point x="172" y="1691"/>
    </contour>
    <contour>
      <point x="423" y="0" type="move" name="_top"/>
    </contour>
  </outline>
</glyph>
<glyph name="a" format="1">
  <advance width="1201"/>
  <unicode hex="0061"/>
  <outline>
    <contour>
      <point x="943" y="307" type="line" name="hr01"/>
      <point x="1042" y="541"/>
      <point x="1123" y="996"/>
      <point x="1115" y="1060" type="curve"/>
      <point x="1044" y="1144"/>
      <point x="960" y="1181"/>
      <point x="838" y="1181" type="curve" smooth="yes" name="hr02"/>
      <point x="761" y="1181"/>
      <point x="691" y="1167"/>
      <point x="670" y="1153" type="curve"/>
      <point x="670" y="1121"/>
      <point x="676" y="1025"/>
      <point x="678" y="907" type="curve"/>
      <point x="618" y="1010"/>
      <point x="539" y="1129"/>
      <point x="432" y="1203" type="curve" name="hr03"/>
      <point x="393" y="1198"/>
      <point x="192" y="1161"/>
      <point x="70" y="1004" type="curve"/>
      <point x="52" y="979"/>
      <point x="45" y="965"/>
      <point x="45" y="949" type="curve" smooth="yes"/>
      <point x="45" y="936"/>
      <point x="49" y="921"/>
      <point x="57" y="894" type="curve" smooth="yes"/>
      <point x="106" y="737"/>
      <point x="130" y="477"/>
      <point x="133" y="319" type="curve" smooth="yes"/>
      <point x="134" y="265"/>
      <point x="130" y="174"/>
      <point x="130" y="146" type="curve" smooth="yes"/>
      <point x="131" y="93"/>
      <point x="214" y="65"/>
      <point x="263" y="30" type="curve" smooth="yes"/>
      <point x="303" y="2"/>
      <point x="338" y="-22"/>
      <point x="374" y="-20" type="curve" smooth="yes"/>
      <point x="392" y="-19"/>
      <point x="410" y="-12"/>
      <point x="430" y="4" type="curve"/>
      <point x="524" y="86"/>
      <point x="635" y="355"/>
      <point x="690" y="496" type="curve"/>
      <point x="705" y="489" type="line"/>
      <point x="691" y="399"/>
      <point x="681" y="321"/>
      <point x="671" y="220" type="curve" smooth="yes"/>
      <point x="662" y="131"/>
      <point x="696" y="106"/>
      <point x="721" y="79" type="curve" smooth="yes" name="hr04"/>
      <point x="776" y="20"/>
      <point x="854" y="-22"/>
      <point x="916" y="-21" type="curve" smooth="yes"/>
      <point x="1032" y="-19"/>
      <point x="1132" y="118"/>
      <point x="1201" y="278" type="curve"/>
      <point x="1116" y="399" type="line"/>
    </contour>
    <contour>
      <point x="431" y="352" type="line"/>
      <point x="455" y="473"/>
      <point x="469" y="590"/>
      <point x="466" y="712" type="curve"/>
      <point x="465" y="819" type="line"/>
      <point x="529" y="804"/>
      <point x="599" y="793"/>
      <point x="679" y="773" type="curve"/>
      <point x="679" y="689"/>
      <point x="680" y="733"/>
      <point x="677" y="693" type="curve"/>
      <point x="644" y="623"/>
      <point x="535" y="411"/>
      <point x="461" y="338" type="curve"/>
    </contour>
    <contour>
      <point x="602" y="0" type="move" name="top"/>
    </contour>
  </outline>
</glyph>
<glyph name="c" format="1">
  <advance width="902"/>
  <unicode hex="0063"/>
  <outline>
    <contour>
      <point x="121" y="319" type="curve" smooth="yes" name="hr00"/>
      <point x="121" y="215"/>
      <point x="83" y="199"/>
      <point x="167" y="127" type="curve" smooth="yes"/>
      <point x="194" y="105"/>
      <point x="338" y="-20"/>
      <point x="426" y="-20" type="curve" smooth="yes"/>
      <point x="583" y="-20"/>
      <point x="827" y="204"/>
      <point x="874" y="290" type="curve"/>
      <point x="773" y="443" type="line"/>
      <point x="661" y="383"/>
      <point x="503" y="304"/>
      <point x="455" y="284" type="curve"/>
      <point x="436" y="300" type="line"/>
      <point x="473" y="475"/>
      <point x="478" y="745"/>
      <point x="462" y="889" type="curve"/>
      <point x="524" y="805"/>
      <point x="594" y="693"/>
      <point x="696" y="633" type="curve"/>
      <point x="747" y="648"/>
      <point x="912" y="828"/>
      <point x="877" y="1059" type="curve"/>
      <point x="691" y="1107" type="line"/>
      <point x="641" y="1130"/>
      <point x="521" y="1204"/>
      <point x="461" y="1204" type="curve" smooth="yes"/>
      <point x="398" y="1204"/>
      <point x="276" y="1143"/>
      <point x="224" y="1112" type="curve" smooth="yes"/>
      <point x="172" y="1081"/>
      <point x="45" y="987"/>
      <point x="45" y="930" type="curve" smooth="yes"/>
      <point x="45" y="917"/>
      <point x="52" y="897"/>
      <point x="61" y="869" type="curve" smooth="yes"/>
      <point x="100" y="755"/>
      <point x="121" y="504"/>
    </contour>
    <contour>
      <point x="469" y="0" type="move" name="top"/>
    </contour>
  </outline>
</glyph>
<glyph name="e" format="1">
  <advance width="949"/>
  <unicode hex="0065"/>
  <outline>
    <contour>
      <point x="888" y="750" type="curve" smooth="yes" name="hr00"/>
      <point x="911" y="794"/>
      <point x="913" y="881"/>
      <point x="903" y="946" type="curve" smooth="yes"/>
      <point x="893" y="1007"/>
      <point x="887" y="1010"/>
      <point x="867" y="1018" type="curve" smooth="yes"/>
      <point x="768" y="1054"/>
      <point x="714" y="1068"/>
      <point x="555" y="1174" type="curve" smooth="yes"/>
      <point x="520" y="1197"/>
      <point x="496" y="1203"/>
      <point x="477" y="1204" type="curve"/>
      <point x="404" y="1204"/>
      <point x="280" y="1146"/>
      <point x="220" y="1109" type="curve" smooth="yes"/>
      <point x="169" y="1077"/>
      <point x="45" y="982"/>
      <point x="45" y="922" type="curve" smooth="yes"/>
      <point x="45" y="910"/>
      <point x="49" y="895"/>
      <point x="57" y="868" type="curve" smooth="yes"/>
      <point x="83" y="782"/>
      <point x="117" y="536"/>
      <point x="117" y="338" type="curve" smooth="yes"/>
      <point x="117" y="234"/>
      <point x="82" y="201"/>
      <point x="164" y="127" type="curve" smooth="yes"/>
      <point x="175" y="118"/>
      <point x="199" y="100"/>
      <point x="227" y="75" type="curve" smooth="yes"/>
      <point x="240" y="64"/>
      <point x="253" y="51"/>
      <point x="266" y="38" type="curve" smooth="yes"/>
      <point x="307" y="-5"/>
      <point x="339" y="-20"/>
      <point x="372" y="-20" type="curve" smooth="yes"/>
      <point x="550" y="-20"/>
      <point x="803" y="192"/>
      <point x="883" y="299" type="curve"/>
      <point x="798" y="438" type="line"/>
      <point x="669" y="376"/>
      <point x="540" y="297"/>
      <point x="472" y="284" type="curve"/>
      <point x="443" y="284" type="line"/>
      <point x="621" y="444"/>
      <point x="872" y="721"/>
    </contour>
    <contour>
      <point x="425" y="417" type="curve"/>
      <point x="425" y="418"/>
      <point x="426" y="419"/>
      <point x="426" y="420" type="curve" smooth="yes"/>
      <point x="439" y="521"/>
      <point x="449" y="775"/>
      <point x="449" y="831" type="curve"/>
      <point x="540" y="802"/>
      <point x="608" y="782"/>
      <point x="643" y="774" type="curve"/>
      <point x="585" y="638"/>
      <point x="471" y="485"/>
    </contour>
    <contour>
      <point x="475" y="0" type="move" name="top"/>
    </contour>
  </outline>
</glyph>
<glyph name="j" format="1">
  <advance width="564"/>
  <unicode hex="006A"/>
  <outline>
    <contour>
      <point x="199" y="1662" type="curve" name="hr00"/>
      <point x="335" y="1662"/>
      <point x="504" y="1614"/>
      <point x="544" y="1445" type="curve"/>
      <point x="501" y="1353"/>
      <point x="335" y="1210"/>
      <point x="262" y="1198" type="curve"/>
      <point x="212" y="1199"/>
      <point x="108" y="1264"/>
      <point x="61" y="1321" type="curve"/>
      <point x="124" y="1463"/>
      <point x="164" y="1561"/>
    </contour>
    <contour>
      <point x="406" y="393" type="line"/>
      <point x="414" y="428" type="line" smooth="yes"/>
      <point x="465" y="649"/>
      <point x="505" y="1056"/>
      <point x="511" y="1105" type="curve"/>
      <point x="465" y="1145"/>
      <point x="408" y="1163"/>
      <point x="349" y="1163" type="curve" smooth="yes"/>
      <point x="223" y="1164"/>
      <point x="87" y="1092"/>
      <point x="26" y="1018" type="curve"/>
      <point x="153" y="565" type="line"/>
      <point x="120" y="-134" type="line"/>
      <point x="64" y="-126"/>
      <point x="0" y="-116"/>
      <point x="-36" y="-113" type="curve"/>
      <point x="-54" y="-173"/>
      <point x="-56" y="-205"/>
      <point x="-50" y="-281" type="curve"/>
      <point x="-15" y="-327"/>
      <point x="103" y="-416"/>
      <point x="223" y="-438" type="curve"/>
      <point x="345" y="-438"/>
      <point x="479" y="-310"/>
      <point x="487" y="-254" type="curve"/>
      <point x="504" y="-57"/>
      <point x="427" y="281"/>
      <point x="406" y="373" type="curve"/>
      <point x="402" y="371" type="line"/>
    </contour>
  </outline>
</glyph>
<glyph name="k" format="1">
  <advance width="1112"/>
  <unicode hex="006B"/>
  <outline>
    <contour>
      <point x="391" y="265" type="line" name="hr00"/>
      <point x="438" y="603"/>
      <point x="495" y="1215"/>
      <point x="480" y="1566" type="curve"/>
      <point x="436" y="1601"/>
      <point x="381" y="1614"/>
      <point x="322" y="1613" type="curve" smooth="yes"/>
      <point x="199" y="1612"/>
      <point x="63" y="1547"/>
      <point x="-2" y="1466" type="curve"/>
      <point x="49" y="1148"/>
      <point x="88" y="942"/>
      <point x="174" y="662" type="curve"/>
      <point x="128" y="508"/>
      <point x="94" y="299"/>
      <point x="88" y="105" type="curve"/>
      <point x="134" y="45"/>
      <point x="255" y="-14"/>
      <point x="298" y="-20" type="curve"/>
      <point x="401" y="49"/>
      <point x="490" y="148"/>
      <point x="585" y="250" type="curve"/>
      <point x="617" y="138"/>
      <point x="672" y="26"/>
      <point x="766" y="-3" type="curve" smooth="yes"/>
      <point x="801" y="-14"/>
      <point x="835" y="-20"/>
      <point x="867" y="-20" type="curve" smooth="yes"/>
      <point x="955" y="-21"/>
      <point x="1030" y="21"/>
      <point x="1074" y="117" type="curve" smooth="yes"/>
      <point x="1107" y="188"/>
      <point x="1115" y="242"/>
      <point x="1115" y="347" type="curve"/>
      <point x="997" y="438" type="line"/>
      <point x="958" y="396"/>
      <point x="919" y="365"/>
      <point x="879" y="345" type="curve"/>
      <point x="847" y="377"/>
      <point x="798" y="431"/>
      <point x="778" y="460" type="curve"/>
      <point x="899" y="599"/>
      <point x="994" y="743"/>
      <point x="1031" y="807" type="curve"/>
      <point x="1032" y="942"/>
      <point x="951" y="1118"/>
      <point x="861" y="1204" type="curve"/>
      <point x="732" y="1199"/>
      <point x="559" y="1096"/>
      <point x="496" y="965" type="curve"/>
      <point x="534" y="876"/>
      <point x="586" y="810"/>
      <point x="647" y="760" type="curve"/>
      <point x="578" y="594"/>
      <point x="495" y="415"/>
      <point x="402" y="260" type="curve"/>
    </contour>
    <contour>
      <point x="527" y="-20" type="move" name="btm"/>
    </contour>
  </outline>
</glyph>
<glyph name="p" format="1">
  <advance width="1125"/>
  <unicode hex="0070"/>
  <outline>
    <contour>
      <point x="461" y="59" type="curve" name="hr00"/>
      <point x="521" y="27"/>
      <point x="663" y="-20"/>
      <point x="806" y="-20" type="curve" smooth="yes"/>
      <point x="840" y="-20"/>
      <point x="873" y="-14"/>
      <point x="904" y="-5" type="curve"/>
      <point x="1032" y="414"/>
      <point x="1082" y="726"/>
      <point x="1089" y="1038" type="curve"/>
      <point x="969" y="1141"/>
      <point x="808" y="1184"/>
      <point x="732" y="1184" type="curve" smooth="yes"/>
      <point x="674" y="1184"/>
      <point x="645" y="1170"/>
      <point x="623" y="1165" type="curve"/>
      <point x="392" y="523" type="line"/>
      <point x="389" y="524" type="line"/>
      <point x="462" y="1143" type="line"/>
      <point x="431" y="1171"/>
      <point x="378" y="1184"/>
      <point x="316" y="1184" type="curve" smooth="yes"/>
      <point x="208" y="1184"/>
      <point x="74" y="1141"/>
      <point x="26" y="1061" type="curve"/>
      <point x="26" y="1051" type="line" smooth="yes"/>
      <point x="28" y="989"/>
      <point x="84" y="700"/>
      <point x="131" y="512" type="curve"/>
      <point x="157" y="-227" type="line"/>
      <point x="161" y="-317"/>
      <point x="195" y="-342"/>
      <point x="246" y="-377" type="curve" smooth="yes"/>
      <point x="290" y="-408"/>
      <point x="349" y="-438"/>
      <point x="401" y="-438" type="curve" smooth="yes"/>
      <point x="489" y="-438"/>
      <point x="611" y="-365"/>
      <point x="657" y="-295" type="curve"/>
      <point x="619" y="-132" type="line"/>
      <point x="427" y="-132" type="line"/>
      <point x="443" y="-61"/>
      <point x="454" y="3"/>
    </contour>
    <contour>
      <point x="699" y="777" type="line"/>
      <point x="697" y="651"/>
      <point x="684" y="380"/>
      <point x="668" y="229" type="curve"/>
      <point x="621" y="232"/>
      <point x="507" y="273"/>
      <point x="452" y="320" type="curve"/>
      <point x="485" y="396"/>
      <point x="614" y="667"/>
      <point x="672" y="785" type="curve"/>
    </contour>
    <contour>
      <point x="571" y="0" type="move" name="top"/>
    </contour>
  </outline>
</glyph>
<glyph name="s" format="1">
  <advance width="900"/>
  <unicode hex="0073"/>
  <outline>
    <contour>
      <point x="431" y="922" type="line" name="hr00"/>
      <point x="499" y="829"/>
      <point x="625" y="718"/>
      <point x="707" y="684" type="curve"/>
      <point x="823" y="804"/>
      <point x="881" y="947"/>
      <point x="846" y="1068" type="curve"/>
      <point x="685" y="1122" type="line"/>
      <point x="626" y="1146"/>
      <point x="541" y="1204"/>
      <point x="482" y="1204" type="curve" smooth="yes"/>
      <point x="406" y="1204"/>
      <point x="283" y="1147"/>
      <point x="221" y="1110" type="curve" smooth="yes"/>
      <point x="176" y="1083"/>
      <point x="43" y="984"/>
      <point x="43" y="925" type="curve" smooth="yes"/>
      <point x="43" y="883"/>
      <point x="44" y="673"/>
      <point x="65" y="594" type="curve"/>
      <point x="119" y="524"/>
      <point x="292" y="445"/>
      <point x="421" y="397" type="curve" smooth="yes"/>
      <point x="465" y="381"/>
      <point x="504" y="368"/>
      <point x="531" y="360" type="curve"/>
      <point x="534" y="323"/>
      <point x="532" y="267"/>
      <point x="525" y="229" type="curve"/>
      <point x="476" y="205" type="line"/>
      <point x="367" y="285"/>
      <point x="240" y="370"/>
      <point x="99" y="374" type="curve"/>
      <point x="83" y="340"/>
      <point x="-3" y="237"/>
      <point x="97" y="55" type="curve"/>
      <point x="179" y="42"/>
      <point x="359" y="-13"/>
      <point x="539" y="-20" type="curve"/>
      <point x="646" y="24"/>
      <point x="731" y="92"/>
      <point x="809" y="168" type="curve"/>
      <point x="833" y="238"/>
      <point x="846" y="334"/>
      <point x="841" y="417" type="curve"/>
      <point x="764" y="514"/>
      <point x="488" y="678"/>
      <point x="396" y="727" type="curve"/>
      <point x="405" y="913" type="line"/>
    </contour>
    <contour>
      <point x="434" y="0" type="move" name="top"/>
    </contour>
    <contour>
      <point x="434" y="-20" type="move" name="btm"/>
    </contour>
  </outline>
</glyph>
<glyph name="t" format="1">
  <advance width="827"/>
  <unicode hex="0074"/>
  <outline>
    <contour>
      <point x="484" y="312" type="line" name="hr00"/>
      <point x="482" y="841" type="line"/>
      <point x="559" y="844"/>
      <point x="654" y="850"/>
      <point x="715" y="855" type="curve"/>
      <point x="736" y="912"/>
      <point x="795" y="1044"/>
      <point x="714" y="1182" type="curve"/>
      <point x="492" y="1137" type="line"/>
      <point x="503" y="1418" type="line"/>
      <point x="406" y="1470"/>
      <point x="246" y="1464"/>
      <point x="199" y="1439" type="curve"/>
      <point x="138" y="1076" type="line"/>
      <point x="26" y="1037" type="line"/>
      <point x="23" y="1000"/>
      <point x="26" y="914"/>
      <point x="46" y="860" type="curve"/>
      <point x="142" y="854" type="line"/>
      <point x="192" y="496" type="line"/>
      <point x="135" y="313"/>
      <point x="127" y="265"/>
      <point x="127" y="240" type="curve"/>
      <point x="131" y="117"/>
      <point x="338" y="-20"/>
      <point x="460" y="-20" type="curve" smooth="yes"/>
      <point x="591" y="-20"/>
      <point x="789" y="251"/>
      <point x="827" y="349" type="curve"/>
      <point x="700" y="490" type="line"/>
    </contour>
    <contour>
      <point x="367" y="0" type="move" name="top"/>
    </contour>
    <contour>
      <point x="367" y="-20" type="move" name="btm"/>
    </contour>
  </outline>
</glyph>
<glyph name="w" format="1">
  <advance width="1636"/>
  <unicode hex="0077"/>
  <outline>
    <contour>
      <point x="1093" y="932" type="curve" name="hr01"/>
      <point x="1140" y="835"/>
      <point x="1201" y="790"/>
      <point x="1263" y="739" type="curve"/>
      <point x="1250" y="635"/>
      <point x="1202" y="441"/>
      <point x="1153" y="306" type="curve"/>
      <point x="1138" y="306" type="line"/>
      <point x="1124" y="450"/>
      <point x="1079" y="663"/>
      <point x="1039" y="829" type="curve"/>
      <point x="1041" y="830" type="line"/>
      <point x="1030" y="965"/>
      <point x="964" y="1125"/>
      <point x="866" y="1204" type="curve"/>
      <point x="738" y="1188"/>
      <point x="578" y="1069"/>
      <point x="530" y="932" type="curve"/>
      <point x="577" y="835"/>
      <point x="638" y="790"/>
      <point x="700" y="739" type="curve"/>
      <point x="687" y="635"/>
      <point x="639" y="439"/>
      <point x="592" y="304" type="curve"/>
      <point x="579" y="305" type="line"/>
      <point x="549" y="558"/>
      <point x="450" y="1024"/>
      <point x="440" y="1093" type="curve"/>
      <point x="408" y="1152"/>
      <point x="339" y="1179"/>
      <point x="265" y="1179" type="curve" smooth="yes"/>
      <point x="153" y="1179"/>
      <point x="5" y="1078"/>
      <point x="5" y="968" type="curve"/>
      <point x="159" y="693" type="line"/>
      <point x="312" y="283" type="line"/>
      <point x="291" y="232"/>
      <point x="283" y="184"/>
      <point x="273" y="47" type="curve"/>
      <point x="321" y="3"/>
      <point x="426" y="-20"/>
      <point x="526" y="-20" type="curve" smooth="yes"/>
      <point x="622" y="-20"/>
      <point x="714" y="1"/>
      <point x="740" y="43" type="curve"/>
      <point x="740" y="84"/>
      <point x="736" y="119"/>
      <point x="725" y="150" type="curve"/>
      <point x="767" y="252"/>
      <point x="803" y="375"/>
      <point x="836" y="489" type="curve"/>
      <point x="901" y="256" type="line"/>
      <point x="885" y="213"/>
      <point x="871" y="160"/>
      <point x="864" y="47" type="curve" name="hr02"/>
      <point x="913" y="3"/>
      <point x="1016" y="-21"/>
      <point x="1122" y="-21" type="curve" smooth="yes"/>
      <point x="1223" y="-21"/>
      <point x="1325" y="0"/>
      <point x="1375" y="44" type="curve"/>
      <point x="1358" y="122"/>
      <point x="1337" y="175"/>
      <point x="1313" y="219" type="curve"/>
      <point x="1442" y="450"/>
      <point x="1565" y="738"/>
      <point x="1604" y="830" type="curve"/>
      <point x="1593" y="965"/>
      <point x="1527" y="1125"/>
      <point x="1429" y="1204" type="curve"/>
      <point x="1301" y="1188"/>
      <point x="1141" y="1069"/>
    </contour>
    <contour>
      <point x="800" y="0" type="move" name="top"/>
    </contour>
  </outline>
</glyph>
<glyph name="bar" format="1">
  <advance width="649"/>
  <unicode hex="007C"/>
  <outline>
    <contour>
      <point x="480" y="1838" type="line" name="hr00"/>
      <point x="391" y="1864"/>
      <point x="207" y="1841"/>
      <point x="142" y="1796" type="curve"/>
      <point x="200" y="-293" type="line"/>
      <point x="288" y="-323"/>
      <point x="372" y="-320"/>
      <point x="470" y="-289" type="curve"/>
    </contour>
  </outline>
</glyph>
<glyph name="sterling" format="1">
  <advance width="1082"/>
  <unicode hex="00A3"/>
  <outline>
    <contour>
      <point x="334" y="341" type="line" name="hr01"/>
      <point x="264" y="410"/>
      <point x="156" y="418"/>
      <point x="61" y="378" type="curve"/>
      <point x="23" y="243"/>
      <point x="80" y="37"/>
      <point x="169" y="-17" type="curve"/>
      <point x="285" y="-10"/>
      <point x="393" y="61"/>
      <point x="445" y="150" type="curve"/>
      <point x="513" y="80"/>
      <point x="681" y="-20"/>
      <point x="805" y="-20" type="curve" smooth="yes" name="hr02"/>
      <point x="875" y="-20"/>
      <point x="939" y="12"/>
      <point x="990" y="80" type="curve" smooth="yes"/>
      <point x="1078" y="200"/>
      <point x="1057" y="439"/>
      <point x="1022" y="533" type="curve"/>
      <point x="874" y="561" type="line"/>
      <point x="774" y="327" type="line"/>
      <point x="540" y="358" type="line"/>
    </contour>
    <contour>
      <point x="752" y="643" type="line"/>
      <point x="790" y="717"/>
      <point x="815" y="818"/>
      <point x="799" y="885" type="curve"/>
      <point x="88" y="840" type="line"/>
      <point x="56" y="785"/>
      <point x="40" y="721"/>
      <point x="49" y="641" type="curve"/>
    </contour>
    <contour>
      <point x="540" y="316" type="line"/>
      <point x="556" y="502"/>
      <point x="565" y="1129"/>
      <point x="561" y="1265" type="curve"/>
      <point x="690" y="1167"/>
      <point x="765" y="1134"/>
      <point x="875" y="1112" type="curve"/>
      <point x="932" y="1163"/>
      <point x="1016" y="1286"/>
      <point x="983" y="1471" type="curve"/>
      <point x="688" y="1491" type="line"/>
      <point x="638" y="1514"/>
      <point x="602" y="1549"/>
      <point x="542" y="1549" type="curve" smooth="yes"/>
      <point x="487" y="1549"/>
      <point x="365" y="1481"/>
      <point x="309" y="1442" type="curve" smooth="yes"/>
      <point x="258" y="1408"/>
      <point x="154" y="1332"/>
      <point x="151" y="1271" type="curve"/>
      <point x="295" y="320" type="line"/>
    </contour>
  </outline>
</glyph>
<glyph name="brokenbar" format="1">
  <advance width="636"/>
  <unicode hex="00A6"/>
  <outline>
    <contour>
      <point x="200" y="-293" type="line" name="hr01"/>
      <point x="288" y="-323"/>
      <point x="372" y="-320"/>
      <point x="470" y="-289" type="curve"/>
      <point x="474" y="499" type="line"/>
      <point x="379" y="527"/>
      <point x="281" y="533"/>
      <point x="178" y="513" type="curve"/>
    </contour>
    <contour>
      <point x="480" y="1838" type="line" name="hr02"/>
      <point x="391" y="1864"/>
      <point x="207" y="1841"/>
      <point x="142" y="1796" type="curve"/>
      <point x="170" y="791" type="line"/>
      <point x="271" y="770"/>
      <point x="372" y="771"/>
      <point x="475" y="798" type="curve"/>
    </contour>
  </outline>
</glyph>
<glyph name="logicalnot" format="1">
  <advance width="1073"/>
  <unicode hex="00AC"/>
  <outline>
    <contour>
      <point x="949" y="292" type="curve" name="hr00"/>
      <point x="949" y="667" type="line"/>
      <point x="864" y="745" type="line"/>
      <point x="147" y="689" type="line"/>
      <point x="101" y="611"/>
      <point x="79" y="553"/>
      <point x="91" y="440" type="curve"/>
      <point x="703" y="441" type="line"/>
      <point x="694" y="246" type="line"/>
      <point x="792" y="208"/>
      <point x="879" y="211"/>
    </contour>
  </outline>
</glyph>
<glyph name="registered" format="1">
  <advance width="1433"/>
  <unicode hex="00AE"/>
  <outline>
    <contour>
      <point x="705" y="1587" type="curve" smooth="yes" name="hr00"/>
      <point x="636" y="1587"/>
      <point x="209" y="1474"/>
      <point x="135" y="1377" type="curve" smooth="yes"/>
      <point x="98" y="1329"/>
      <point x="99" y="1196"/>
      <point x="99" y="1122" type="curve" smooth="yes"/>
      <point x="99" y="922"/>
      <point x="128" y="594"/>
      <point x="165" y="357" type="curve" smooth="yes"/>
      <point x="182" y="242"/>
      <point x="610" y="166"/>
      <point x="755" y="153" type="curve"/>
      <point x="834" y="165"/>
      <point x="1225" y="252"/>
      <point x="1256" y="362" type="curve"/>
      <point x="1294" y="498"/>
      <point x="1335" y="884"/>
      <point x="1335" y="1101" type="curve" smooth="yes"/>
      <point x="1335" y="1224"/>
      <point x="1330" y="1317"/>
      <point x="1283" y="1373" type="curve" smooth="yes"/>
      <point x="1187" y="1488"/>
      <point x="803" y="1587"/>
    </contour>
    <contour>
      <point x="652" y="698" type="line"/>
      <point x="675" y="644"/>
      <point x="698" y="522"/>
      <point x="705" y="446" type="curve"/>
      <point x="680" y="428"/>
      <point x="634" y="420"/>
      <point x="598" y="420" type="curve" smooth="yes"/>
      <point x="540" y="418"/>
      <point x="438" y="437"/>
      <point x="409" y="470" type="curve"/>
      <point x="428" y="563"/>
      <point x="439" y="598"/>
      <point x="457" y="644" type="curve"/>
      <point x="424" y="710"/>
      <point x="376" y="1211"/>
      <point x="381" y="1234" type="curve"/>
      <point x="433" y="1305"/>
      <point x="591" y="1341"/>
      <point x="675" y="1284" type="curve"/>
      <point x="640" y="1054" type="line"/>
      <point x="677" y="1046" type="line"/>
      <point x="719" y="1178"/>
      <point x="741" y="1234"/>
      <point x="826" y="1323" type="curve"/>
      <point x="870" y="1324"/>
      <point x="1003" y="1298"/>
      <point x="1073" y="1240" type="curve"/>
      <point x="1097" y="1125"/>
      <point x="1091" y="955"/>
      <point x="1031" y="830" type="curve"/>
      <point x="888" y="736" type="line"/>
      <point x="945" y="669" type="line"/>
      <point x="1038" y="716" type="line"/>
      <point x="1110" y="632" type="line"/>
      <point x="1104" y="536"/>
      <point x="1051" y="420"/>
      <point x="946" y="420" type="curve" smooth="yes"/>
      <point x="806" y="420"/>
      <point x="738" y="526"/>
      <point x="721" y="689" type="curve"/>
    </contour>
    <contour>
      <point x="769" y="1037" type="line"/>
      <point x="738" y="990"/>
      <point x="652" y="872"/>
      <point x="629" y="827" type="curve"/>
      <point x="780" y="836" type="line"/>
      <point x="802" y="898"/>
      <point x="801" y="995"/>
      <point x="791" y="1034" type="curve"/>
    </contour>
  </outline>
</glyph>
<glyph name="acute" format="1">
  <advance width="692"/>
  <unicode hex="00B4"/>
  <outline>
    <contour>
      <point x="383" y="1732" type="curve" name="hr00"/>
      <point x="501" y="1691"/>
      <point x="597" y="1559"/>
      <point x="598" y="1446" type="curve"/>
      <point x="510" y="1369"/>
      <point x="309" y="1274"/>
      <point x="174" y="1247" type="curve"/>
      <point x="142" y="1274"/>
      <point x="99" y="1336"/>
      <point x="75" y="1402" type="curve"/>
      <point x="200" y="1508"/>
      <point x="272" y="1602"/>
    </contour>
    <contour>
      <point x="237" y="0" type="move" name="_top"/>
    </contour>
  </outline>
</glyph>
<glyph name="cedilla" format="1">
  <advance width="553"/>
  <unicode hex="00B8"/>
  <outline>
    <contour>
      <point x="146" y="135" type="line" name="hr00"/>
      <point x="283" y="-169" type="line"/>
      <point x="218" y="-169"/>
      <point x="98" y="-146"/>
      <point x="30" y="-130" type="curve"/>
      <point x="17" y="-172"/>
      <point x="4" y="-243"/>
      <point x="8" y="-296" type="curve"/>
      <point x="39" y="-336"/>
      <point x="146" y="-407"/>
      <point x="251" y="-408" type="curve" smooth="yes"/>
      <point x="262" y="-408"/>
      <point x="272" y="-407"/>
      <point x="281" y="-406" type="curve"/>
      <point x="405" y="-364"/>
      <point x="514" y="-261"/>
      <point x="544" y="-145" type="curve"/>
      <point x="366" y="134" type="line"/>
    </contour>
    <contour>
      <point x="290" y="-35" type="move" name="_btm"/>
    </contour>
  </outline>
</glyph>
<glyph name="multiply" format="1">
  <advance width="1088"/>
  <unicode hex="00D7"/>
  <outline>
    <contour>
      <point x="757" y="980" type="line" name="hr00"/>
      <point x="881" y="936"/>
      <point x="947" y="869"/>
      <point x="979" y="801" type="curve"/>
      <point x="863" y="697"/>
      <point x="749" y="595"/>
      <point x="633" y="491" type="curve"/>
      <point x="586" y="516"/>
      <point x="498" y="590"/>
      <point x="469" y="637" type="curve"/>
    </contour>
    <contour>
      <point x="333" y="122" type="line"/>
      <point x="210" y="166"/>
      <point x="142" y="235"/>
      <point x="111" y="301" type="curve"/>
      <point x="466" y="631" type="line"/>
      <point x="515" y="604"/>
      <point x="604" y="531"/>
      <point x="630" y="486" type="curve"/>
    </contour>
    <contour>
      <point x="975" y="342" type="line"/>
      <point x="930" y="220"/>
      <point x="859" y="149"/>
      <point x="792" y="117" type="curve"/>
      <point x="479" y="451" type="line"/>
      <point x="515" y="506"/>
      <point x="602" y="601"/>
      <point x="650" y="630" type="curve"/>
    </contour>
    <contour>
      <point x="114" y="760" type="line"/>
      <point x="158" y="883"/>
      <point x="230" y="952"/>
      <point x="296" y="984" type="curve"/>
      <point x="594" y="667" type="line"/>
      <point x="567" y="617"/>
      <point x="479" y="509"/>
      <point x="425" y="475" type="curve"/>
    </contour>
  </outline>
</glyph>
<glyph name="Thorn" format="1">
  <advance width="1264"/>
  <unicode hex="00DE"/>
  <outline>
    <contour>
      <point x="465" y="344" type="line" name="hr00"/>
      <point x="455" y="892" type="line"/>
      <point x="530" y="1480" type="line"/>
      <point x="473" y="1516"/>
      <point x="417" y="1529"/>
      <point x="360" y="1529" type="curve" smooth="yes"/>
      <point x="254" y="1529"/>
      <point x="147" y="1473"/>
      <point x="88" y="1393" type="curve"/>
      <point x="79" y="1354"/>
      <point x="163" y="600"/>
      <point x="219" y="488" type="curve"/>
    </contour>
    <contour>
      <point x="427" y="436" type="curve"/>
      <point x="436" y="435" type="line"/>
      <point x="429" y="428" type="line"/>
      <point x="530" y="387"/>
      <point x="776" y="239"/>
      <point x="855" y="240" type="curve" smooth="yes"/>
      <point x="935" y="241"/>
      <point x="1073" y="368"/>
      <point x="1116" y="419" type="curve"/>
      <point x="1200" y="651"/>
      <point x="1236" y="1033"/>
      <point x="1219" y="1253" type="curve"/>
      <point x="1099" y="1355"/>
      <point x="937" y="1398"/>
      <point x="861" y="1397" type="curve" smooth="yes"/>
      <point x="803" y="1396"/>
      <point x="752" y="1386"/>
      <point x="731" y="1380" type="curve"/>
      <point x="335" y="718" type="line"/>
      <point x="420" y="532" type="line"/>
      <point x="417" y="511"/>
      <point x="427" y="436"/>
    </contour>
    <contour>
      <point x="795" y="487" type="curve" smooth="yes"/>
      <point x="779" y="394"/>
      <point x="557" y="685"/>
      <point x="504" y="714" type="curve"/>
      <point x="574" y="813"/>
      <point x="710" y="932"/>
      <point x="780" y="1000" type="curve"/>
      <point x="827" y="992" type="line"/>
      <point x="844" y="829"/>
      <point x="823" y="645"/>
    </contour>
    <contour>
      <point x="250" y="656" type="line"/>
      <point x="201" y="513"/>
      <point x="163" y="258"/>
      <point x="153" y="62" type="curve"/>
      <point x="206" y="12"/>
      <point x="292" y="-20"/>
      <point x="411" y="-20" type="curve" smooth="yes"/>
      <point x="482" y="-20"/>
      <point x="535" y="-9"/>
      <point x="578" y="19" type="curve"/>
      <point x="567" y="208"/>
      <point x="499" y="469"/>
      <point x="465" y="632" type="curve"/>
    </contour>
    <contour>
      <point x="406" y="870" type="line"/>
      <point x="530" y="985" type="line"/>
      <point x="305" y="1050" type="line"/>
    </contour>
  </outline>
</glyph>
<glyph name="thorn" format="1">
  <advance width="1129"/>
  <unicode hex="00FE"/>
  <outline>
    <contour>
      <point x="427" y="59" type="curve" name="hr00"/>
      <point x="485" y="27"/>
      <point x="626" y="-20"/>
      <point x="769" y="-20" type="curve" smooth="yes"/>
      <point x="803" y="-20"/>
      <point x="836" y="-14"/>
      <point x="867" y="-5" type="curve"/>
      <point x="1010" y="414"/>
      <point x="1071" y="726"/>
      <point x="1089" y="1038" type="curve"/>
      <point x="972" y="1141"/>
      <point x="813" y="1184"/>
      <point x="737" y="1184" type="curve" smooth="yes"/>
      <point x="679" y="1184"/>
      <point x="649" y="1170"/>
      <point x="627" y="1165" type="curve"/>
      <point x="375" y="525" type="line"/>
      <point x="419" y="879"/>
      <point x="475" y="1231"/>
      <point x="493" y="1566" type="curve"/>
      <point x="451" y="1600"/>
      <point x="398" y="1613"/>
      <point x="341" y="1613" type="curve" smooth="yes"/>
      <point x="220" y="1613"/>
      <point x="85" y="1548"/>
      <point x="18" y="1466" type="curve"/>
      <point x="10" y="1435"/>
      <point x="65" y="830"/>
      <point x="116" y="527" type="curve"/>
      <point x="112" y="512" type="line"/>
      <point x="113" y="-227" type="line" smooth="yes"/>
      <point x="113" y="-317"/>
      <point x="147" y="-342"/>
      <point x="196" y="-377" type="curve" smooth="yes"/>
      <point x="239" y="-408"/>
      <point x="297" y="-438"/>
      <point x="349" y="-438" type="curve" smooth="yes"/>
      <point x="437" y="-438"/>
      <point x="562" y="-365"/>
      <point x="610" y="-295" type="curve"/>
      <point x="578" y="-132" type="line"/>
      <point x="386" y="-132" type="line"/>
      <point x="404" y="-61"/>
      <point x="418" y="3"/>
    </contour>
    <contour>
      <point x="696" y="777" type="line"/>
      <point x="689" y="651"/>
      <point x="657" y="366"/>
      <point x="635" y="215" type="curve"/>
      <point x="589" y="218"/>
      <point x="477" y="253"/>
      <point x="424" y="300" type="curve"/>
      <point x="459" y="376"/>
      <point x="607" y="667"/>
      <point x="669" y="785" type="curve"/>
    </contour>
  </outline>
</glyph>
<glyph name="aogonek" format="1">
  <advance width="1194"/>
  <unicode hex="0105"/>
  <outline>
    <contour>
      <point x="936" y="307" type="line" name="hr01"/>
      <point x="1035" y="541"/>
      <point x="1116" y="996"/>
      <point x="1108" y="1060" type="curve"/>
      <point x="1037" y="1144"/>
      <point x="953" y="1181"/>
      <point x="831" y="1181" type="curve" smooth="yes" name="hr02"/>
      <point x="754" y="1181"/>
      <point x="684" y="1167"/>
      <point x="663" y="1153" type="curve"/>
      <point x="663" y="1121"/>
      <point x="669" y="1025"/>
      <point x="671" y="907" type="curve"/>
      <point x="611" y="1010"/>
      <point x="542" y="1129"/>
      <point x="436" y="1203" type="curve" name="hr03"/>
      <point x="397" y="1198"/>
      <point x="195" y="1161"/>
      <point x="71" y="1004" type="curve" smooth="yes"/>
      <point x="52" y="979"/>
      <point x="45" y="965"/>
      <point x="45" y="949" type="curve" smooth="yes"/>
      <point x="45" y="936"/>
      <point x="48" y="921"/>
      <point x="56" y="894" type="curve" smooth="yes"/>
      <point x="102" y="737"/>
      <point x="122" y="477"/>
      <point x="122" y="319" type="curve" smooth="yes"/>
      <point x="122" y="265"/>
      <point x="116" y="174"/>
      <point x="116" y="146" type="curve" smooth="yes"/>
      <point x="116" y="93"/>
      <point x="198" y="65"/>
      <point x="247" y="30" type="curve" smooth="yes"/>
      <point x="286" y="2"/>
      <point x="321" y="-22"/>
      <point x="357" y="-20" type="curve" smooth="yes"/>
      <point x="375" y="-19"/>
      <point x="393" y="-12"/>
      <point x="413" y="4" type="curve" smooth="yes"/>
      <point x="509" y="86"/>
      <point x="628" y="355"/>
      <point x="683" y="496" type="curve"/>
      <point x="698" y="489" type="line"/>
      <point x="684" y="399"/>
      <point x="674" y="321"/>
      <point x="664" y="220" type="curve" smooth="yes"/>
      <point x="655" y="131"/>
      <point x="689" y="106"/>
      <point x="714" y="79" type="curve" smooth="yes" name="hr04"/>
      <point x="769" y="20"/>
      <point x="847" y="-22"/>
      <point x="909" y="-21" type="curve" smooth="yes"/>
      <point x="1025" y="-19"/>
      <point x="1125" y="118"/>
      <point x="1194" y="278" type="curve"/>
      <point x="1109" y="399" type="line"/>
    </contour>
    <contour>
      <point x="420" y="352" type="line"/>
      <point x="446" y="473"/>
      <point x="462" y="590"/>
      <point x="462" y="712" type="curve" smooth="yes"/>
      <point x="462" y="819" type="line"/>
      <point x="526" y="804"/>
      <point x="592" y="793"/>
      <point x="672" y="773" type="curve"/>
      <point x="672" y="689"/>
      <point x="673" y="733"/>
      <point x="670" y="693" type="curve"/>
      <point x="637" y="623"/>
      <point x="525" y="411"/>
      <point x="450" y="338" type="curve"/>
    </contour>
    <component base="ogonek" xOffset="657"/>
  </outline>
</glyph>
<glyph name="eogonek" format="1">
  <advance width="949"/>
  <unicode hex="0119"/>
  <outline>
    <contour>
      <point x="610" y="-170" type="line" name="hr00"/>
      <point x="691" y="-14"/>
      <point x="792" y="143"/>
      <point x="883" y="299" type="curve"/>
      <point x="792" y="209" type="line"/>
      <point x="758" y="187"/>
      <point x="579" y="179"/>
      <point x="510" y="116" type="curve"/>
      <point x="616" y="55" type="line"/>
      <point x="516" y="-27"/>
      <point x="358" y="-143"/>
      <point x="358" y="-235" type="curve" smooth="yes"/>
      <point x="358" y="-316"/>
      <point x="508" y="-438"/>
      <point x="605" y="-438" type="curve" smooth="yes"/>
      <point x="721" y="-438"/>
      <point x="800" y="-374"/>
      <point x="867" y="-243" type="curve"/>
      <point x="820" y="-116" type="line"/>
      <point x="624" y="-183" type="line"/>
    </contour>
    <component base="e"/>
  </outline>
</glyph>
<glyph name="imacron" format="1">
  <advance width="655"/>
  <unicode hex="012B"/>
  <outline>
    <contour>
      <point x="-8" y="1337" type="curve" name="hr00"/>
      <point x="306" y="1325"/>
      <point x="492" y="1331"/>
      <point x="562" y="1337" type="curve"/>
      <point x="607" y="1425"/>
      <point x="621" y="1528"/>
      <point x="602" y="1608" type="curve"/>
      <point x="38" y="1594" type="line"/>
      <point x="0" y="1529"/>
      <point x="-18" y="1431"/>
    </contour>
    <component base="dotlessi" xOffset="20"/>
  </outline>
</glyph>
<glyph name="iogonek" format="1">
  <advance width="615"/>
  <unicode hex="012F"/>
  <outline>
    <contour>
      <point x="349" y="-176" type="line" name="hr00"/>
      <point x="541" y="114" type="line"/>
      <point x="464" y="195" type="line"/>
    </contour>
    <component base="i"/>
    <component base="ogonek" xOffset="74"/>
  </outline>
</glyph>
<glyph name="dotlessi" format="1">
  <advance width="615"/>
  <unicode hex="0131"/>
  <outline>
    <contour>
      <point x="345" y="-20" type="curve" smooth="yes" name="hr00"/>
      <point x="476" y="-20"/>
      <point x="578" y="158"/>
      <point x="620" y="256" type="curve"/>
      <point x="541" y="381" type="line"/>
      <point x="391" y="314" type="line"/>
      <point x="410" y="392" type="line" smooth="yes"/>
      <point x="464" y="613"/>
      <point x="502" y="1056"/>
      <point x="511" y="1105" type="curve"/>
      <point x="464" y="1146"/>
      <point x="407" y="1163"/>
      <point x="346" y="1163" type="curve" smooth="yes"/>
      <point x="221" y="1163"/>
      <point x="86" y="1091"/>
      <point x="26" y="1018" type="curve"/>
      <point x="157" y="497" type="line"/>
      <point x="64" y="235"/>
      <point x="63" y="249"/>
      <point x="63" y="212" type="curve" smooth="yes"/>
      <point x="63" y="104"/>
      <point x="251" y="-20"/>
    </contour>
    <contour>
      <point x="268" y="0" type="move" name="top"/>
    </contour>
  </outline>
</glyph>
<glyph name="lslash" format="1">
  <advance width="741"/>
  <unicode hex="0142"/>
  <outline>
    <contour>
      <point x="-14" y="723" type="line" name="hr00"/>
      <point x="-8" y="661"/>
      <point x="44" y="586"/>
      <point x="87" y="562" type="curve"/>
      <point x="722" y="945" type="line"/>
      <point x="737" y="1037"/>
      <point x="710" y="1152"/>
      <point x="662" y="1181" type="curve"/>
    </contour>
    <contour>
      <point x="383" y="-20" type="curve" smooth="yes"/>
      <point x="509" y="-20"/>
      <point x="672" y="175"/>
      <point x="710" y="291" type="curve"/>
      <point x="630" y="418" type="line"/>
      <point x="431" y="314" type="line"/>
      <point x="490" y="919"/>
      <point x="509" y="1250"/>
      <point x="520" y="1566" type="curve"/>
      <point x="477" y="1601"/>
      <point x="437" y="1614"/>
      <point x="380" y="1613" type="curve" smooth="yes"/>
      <point x="261" y="1612"/>
      <point x="131" y="1547"/>
      <point x="67" y="1466" type="curve"/>
      <point x="62" y="1437"/>
      <point x="131" y="977"/>
      <point x="191" y="662" type="curve"/>
      <point x="110" y="249" type="line" smooth="yes"/>
      <point x="99" y="192"/>
      <point x="115" y="161"/>
      <point x="135" y="138" type="curve" smooth="yes"/>
      <point x="194" y="68"/>
      <point x="291" y="-20"/>
    </contour>
  </outline>
</glyph>
<glyph name="Eng" format="1">
  <advance width="1371"/>
  <unicode hex="014A"/>
  <outline>
    <contour>
      <point x="642" y="1385" type="line" name="hr01"/>
      <point x="493" y="1491"/>
      <point x="282" y="1537"/>
      <point x="187" y="1549" type="curve"/>
      <point x="52" y="1477"/>
      <point x="28" y="1346"/>
      <point x="28" y="1226" type="curve"/>
      <point x="78" y="1194"/>
      <point x="144" y="1179"/>
      <point x="201" y="1175" type="curve"/>
      <point x="209" y="296" type="line"/>
      <point x="98" y="305" type="line"/>
      <point x="67" y="142" type="line"/>
      <point x="114" y="43"/>
      <point x="227" y="-20"/>
      <point x="346" y="-20" type="curve" smooth="yes"/>
      <point x="499" y="-20"/>
      <point x="558" y="78"/>
      <point x="558" y="203" type="curve" smooth="yes"/>
      <point x="558" y="218"/>
      <point x="557" y="233"/>
      <point x="556" y="248" type="curve" smooth="yes"/>
      <point x="529" y="507"/>
      <point x="381" y="1069"/>
      <point x="351" y="1168" type="curve"/>
      <point x="356" y="1170" type="line"/>
      <point x="793" y="245" type="line"/>
      <point x="906" y="-5" type="line" name="hr02"/>
      <point x="955" y="-15"/>
      <point x="1006" y="-21"/>
      <point x="1049" y="-21" type="curve" smooth="yes"/>
      <point x="1134" y="-21"/>
      <point x="1212" y="2"/>
      <point x="1265" y="55" type="curve"/>
      <point x="1212" y="348" type="line"/>
      <point x="1292" y="1486" type="line"/>
      <point x="1251" y="1514"/>
      <point x="1179" y="1529"/>
      <point x="1126" y="1529" type="curve" smooth="yes"/>
      <point x="1020" y="1529"/>
      <point x="907" y="1483"/>
      <point x="882" y="1430" type="curve"/>
      <point x="882" y="1280"/>
      <point x="989" y="543"/>
      <point x="1030" y="305" type="curve"/>
      <point x="1026" y="301" type="line"/>
    </contour>
    <contour>
      <point x="852" y="450" type="line"/>
      <point x="921" y="-132" type="line"/>
      <point x="828" y="-132"/>
      <point x="630" y="-106"/>
      <point x="532" y="-84" type="curve"/>
      <point x="517" y="-134"/>
      <point x="505" y="-181"/>
      <point x="505" y="-239" type="curve" smooth="yes"/>
      <point x="505" y="-251"/>
      <point x="506" y="-263"/>
      <point x="507" y="-276" type="curve"/>
      <point x="551" y="-334"/>
      <point x="753" y="-435"/>
      <point x="903" y="-436" type="curve" smooth="yes"/>
      <point x="918" y="-436"/>
      <point x="932" y="-435"/>
      <point x="946" y="-433" type="curve"/>
      <point x="1122" y="-373"/>
      <point x="1248" y="-226"/>
      <point x="1291" y="-60" type="curve"/>
      <point x="1156" y="542" type="line"/>
      <point x="1042" y="507" type="line"/>
      <point x="1055" y="214" type="line"/>
      <point x="944" y="477" type="line"/>
    </contour>
  </outline>
</glyph>
<glyph name="quoteright" format="1">
  <advance width="489"/>
  <unicode hex="2019"/>
  <outline>
    <contour>
      <point x="454" y="1494" type="curve" name="hr00"/>
      <point x="404" y="1305"/>
      <point x="315" y="1087"/>
      <point x="196" y="908" type="curve"/>
      <point x="38" y="960" type="line"/>
      <point x="93" y="1581" type="line"/>
      <point x="124" y="1590"/>
      <point x="160" y="1595"/>
      <point x="197" y="1595" type="curve" smooth="yes"/>
      <point x="289" y="1595"/>
      <point x="389" y="1564"/>
    </contour>
  </outline>
</glyph>
<glyph name="partialdiff" format="1">
  <advance width="1103"/>
  <unicode hex="2202"/>
  <outline>
    <contour>
      <point x="675" y="852" type="line" name="hr00"/>
      <point x="681" y="667"/>
      <point x="674" y="466"/>
      <point x="642" y="258" type="curve"/>
      <point x="585" y="220" type="line"/>
      <point x="516" y="235"/>
      <point x="458" y="265"/>
      <point x="418" y="292" type="curve"/>
      <point x="414" y="458"/>
      <point x="420" y="520"/>
      <point x="443" y="678" type="curve"/>
    </contour>
    <contour>
      <point x="871" y="786" type="line"/>
      <point x="674" y="1059" type="line"/>
      <point x="611" y="956" type="line"/>
      <point x="607" y="852" type="line"/>
    </contour>
    <contour>
      <point x="1047" y="1058" type="curve"/>
      <point x="931" y="1227"/>
      <point x="573" y="1498"/>
      <point x="248" y="1613" type="curve"/>
      <point x="197" y="1591"/>
      <point x="122" y="1470"/>
      <point x="118" y="1419" type="curve"/>
      <point x="349" y="1256"/>
      <point x="497" y="1136"/>
      <point x="598" y="1035" type="curve"/>
      <point x="489" y="1016"/>
      <point x="168" y="868"/>
      <point x="105" y="796" type="curve"/>
      <point x="44" y="520"/>
      <point x="68" y="323"/>
      <point x="106" y="136" type="curve"/>
      <point x="192" y="63"/>
      <point x="408" y="-8"/>
      <point x="541" y="-20" type="curve"/>
      <point x="606" y="-13"/>
      <point x="667" y="9"/>
      <point x="754" y="52" type="curve" smooth="yes"/>
      <point x="814" y="81"/>
      <point x="901" y="130"/>
      <point x="927" y="160" type="curve"/>
      <point x="970" y="284"/>
      <point x="1032" y="560"/>
      <point x="1047" y="759" type="curve" smooth="yes"/>
      <point x="1053" y="845"/>
      <point x="1063" y="971"/>
    </contour>
  </outline>
</glyph>
<glyph name="Delta" format="1">
  <advance width="1218"/>
  <unicode hex="2206"/>
  <outline>
    <contour>
      <point x="797" y="1529" type="line" name="hr00"/>
      <point x="764" y="1544"/>
      <point x="689" y="1550"/>
      <point x="648" y="1549" type="curve" smooth="yes"/>
      <point x="553" y="1546"/>
      <point x="386" y="1505"/>
      <point x="352" y="1462" type="curve"/>
      <point x="228" y="903" type="line"/>
      <point x="17" y="154" type="line"/>
      <point x="40" y="94"/>
      <point x="82" y="38"/>
      <point x="129" y="0" type="curve"/>
      <point x="1044" y="0" type="line"/>
      <point x="1122" y="96"/>
      <point x="1169" y="205"/>
      <point x="1201" y="320" type="curve"/>
      <point x="988" y="903" type="line"/>
    </contour>
    <contour>
      <point x="562" y="1124" type="line"/>
      <point x="616" y="903" type="line"/>
      <point x="845" y="289" type="line"/>
      <point x="368" y="309" type="line"/>
      <point x="510" y="925" type="line"/>
      <point x="536" y="1124" type="line"/>
    </contour>
  </outline>
</glyph>
<glyph name="integral" format="1">
  <advance width="727"/>
  <unicode hex="222B"/>
  <outline>
    <contour>
      <point x="317" y="-137" type="curve" name="hr00"/>
      <point x="149" y="-116"/>
      <point x="70" y="-107"/>
      <point x="33" y="-99" type="curve"/>
      <point x="15" y="-159"/>
      <point x="2" y="-205"/>
      <point x="8" y="-281" type="curve"/>
      <point x="43" y="-327"/>
      <point x="191" y="-416"/>
      <point x="311" y="-438" type="curve"/>
      <point x="416" y="-438"/>
      <point x="528" y="-342"/>
      <point x="564" y="-281" type="curve" smooth="yes"/>
      <point x="577" y="-260"/>
      <point x="586" y="-238"/>
      <point x="588" y="-214" type="curve"/>
      <point x="453" y="1498" type="line"/>
      <point x="498" y="1440"/>
      <point x="540" y="1373"/>
      <point x="715" y="1361" type="curve"/>
      <point x="782" y="1426"/>
      <point x="828" y="1666"/>
      <point x="788" y="1740" type="curve"/>
      <point x="681" y="1729"/>
      <point x="575" y="1748"/>
      <point x="411" y="1785" type="curve"/>
      <point x="140" y="1672"/>
      <point x="73" y="1467"/>
      <point x="73" y="1467" type="curve"/>
      <point x="82" y="1283"/>
      <point x="212" y="334"/>
    </contour>
  </outline>
</glyph>
<glyph name=".notdef" format="1">
  <advance width="1703"/>
  <outline>
    <contour>
      <point x="1405" y="0" type="line" smooth="yes" name="hr00"/>
      <point x="1456" y="0"/>
      <point x="1481" y="29"/>
      <point x="1481" y="76" type="curve" smooth="yes"/>
      <point x="1481" y="1457" type="line" smooth="yes"/>
      <point x="1481" y="1504"/>
      <point x="1456" y="1533"/>
      <point x="1405" y="1533" type="curve" smooth="yes"/>
      <point x="288" y="1533" type="line" smooth="yes"/>
      <point x="247" y="1533"/>
      <point x="222" y="1504"/>
      <point x="222" y="1454" type="curve" smooth="yes"/>
      <point x="222" y="78" type="line" smooth="yes"/>
      <point x="222" y="29"/>
      <point x="247" y="0"/>
      <point x="291" y="0" type="curve" smooth="yes"/>
    </contour>
    <contour>
      <point x="1209" y="361" type="line" smooth="yes"/>
      <point x="1187" y="339"/>
      <point x="1160" y="341"/>
      <point x="1136" y="366" type="curve"/>
      <point x="855" y="645" type="line"/>
      <point x="579" y="368" type="line" smooth="yes"/>
      <point x="553" y="341"/>
      <point x="525" y="340"/>
      <point x="500" y="366" type="curve" smooth="yes"/>
      <point x="445" y="421" type="line" smooth="yes"/>
      <point x="423" y="443"/>
      <point x="424" y="471"/>
      <point x="442" y="488" type="curve" smooth="yes"/>
      <point x="727" y="773" type="line"/>
      <point x="440" y="1062" type="line"/>
      <point x="423" y="1078"/>
      <point x="418" y="1104"/>
      <point x="440" y="1126" type="curve" smooth="yes"/>
      <point x="501" y="1184" type="line" smooth="yes"/>
      <point x="522" y="1205"/>
      <point x="547" y="1198"/>
      <point x="562" y="1183" type="curve" smooth="yes"/>
      <point x="849" y="895" type="line"/>
      <point x="1130" y="1177" type="line" smooth="yes"/>
      <point x="1145" y="1193"/>
      <point x="1171" y="1201"/>
      <point x="1194" y="1177" type="curve" smooth="yes"/>
      <point x="1261" y="1108" type="line"/>
      <point x="1280" y="1090"/>
      <point x="1275" y="1065"/>
      <point x="1252" y="1043" type="curve"/>
      <point x="977" y="767" type="line"/>
      <point x="1261" y="483" type="line" smooth="yes"/>
      <point x="1282" y="463"/>
      <point x="1285" y="437"/>
      <point x="1261" y="413" type="curve" smooth="yes"/>
    </contour>
  </outline>
</glyph>
<glyph name="grave.cap" format="1">
  <advance width="692"/>
  <outline>
    <contour>
      <point x="231" y="2020" type="curve" name="hr00"/>
      <point x="360" y="1930"/>
      <point x="448" y="1876"/>
      <point x="619" y="1791" type="curve"/>
      <point x="623" y="1728"/>
      <point x="589" y="1666"/>
      <point x="555" y="1629" type="curve"/>
      <point x="433" y="1607"/>
      <point x="200" y="1659"/>
      <point x="51" y="1738" type="curve"/>
      <point x="61" y="1839"/>
      <point x="124" y="1955"/>
    </contour>
    <contour>
      <point x="402" y="0" type="move" name="_top"/>
    </contour>
  </outline>
</glyph>
<glyph name="i.cy" format="1">
  <advance width="615"/>
  <outline>
    <contour>
      <point x="345" y="-20" type="curve" smooth="yes"/>
      <point x="476" y="-20"/>
      <point x="578" y="158"/>
      <point x="620" y="256" type="curve"/>
      <point x="541" y="381" type="line"/>
      <point x="391" y="314" type="line"/>
      <point x="410" y="392" type="line" smooth="yes"/>
      <point x="464" y="613"/>
      <point x="502" y="1056"/>
      <point x="511" y="1105" type="curve"/>
      <point x="464" y="1146"/>
      <point x="407" y="1163"/>
      <point x="346" y="1163" type="curve" smooth="yes"/>
      <point x="221" y="1163"/>
      <point x="86" y="1091"/>
      <point x="26" y="1018" type="curve"/>
      <point x="157" y="497" type="line"/>
      <point x="64" y="235"/>
      <point x="63" y="249"/>
      <point x="63" y="212" type="curve" smooth="yes"/>
      <point x="63" y="104"/>
      <point x="251" y="-20"/>
    </contour>
    <contour>
      <point x="228" y="1681" type="curve"/>
      <point x="364" y="1681"/>
      <point x="533" y="1633"/>
      <point x="573" y="1464" type="curve"/>
      <point x="530" y="1372"/>
      <point x="364" y="1219"/>
      <point x="291" y="1207" type="curve"/>
      <point x="241" y="1208"/>
      <point x="137" y="1273"/>
      <point x="90" y="1330" type="curve"/>
      <point x="153" y="1472"/>
      <point x="193" y="1580"/>
    </contour>
  </outline>
</glyph>
<glyph name="macron.cap" format="1">
  <advance width="749"/>
  <outline>
    <contour>
      <point x="23" y="1657" type="curve" name="hr00"/>
      <point x="337" y="1645"/>
      <point x="610" y="1651"/>
      <point x="680" y="1657" type="curve"/>
      <point x="725" y="1745"/>
      <point x="739" y="1848"/>
      <point x="720" y="1928" type="curve"/>
      <point x="69" y="1914" type="line"/>
      <point x="31" y="1849"/>
      <point x="13" y="1751"/>
    </contour>
    <contour>
      <point x="359" y="0" type="move" name="_top"/>
    </contour>
  </outline>
</glyph>
<glyph name="tilde.cap" format="1">
  <advance width="864"/>
  <outline>
    <contour>
      <point x="121" y="1626" type="line" name="hr00"/>
      <point x="11" y="1706" type="line"/>
      <point x="35" y="1815"/>
      <point x="170" y="2020"/>
      <point x="312" y="2020" type="curve" smooth="yes"/>
      <point x="400" y="2020"/>
      <point x="538" y="1912"/>
      <point x="612" y="1880" type="curve"/>
      <point x="746" y="2000" type="line"/>
      <point x="853" y="1913" type="line"/>
      <point x="829" y="1804"/>
      <point x="703" y="1605"/>
      <point x="561" y="1605" type="curve" smooth="yes"/>
      <point x="483" y="1605"/>
      <point x="330" y="1692"/>
      <point x="261" y="1745" type="curve"/>
    </contour>
    <contour>
      <point x="432" y="0" type="move" name="_top"/>
    </contour>
  </outline>
</glyph>
